<?xml version="1.0" encoding="UTF-8" standalone="no"?>
<!-- Created with Inkscape (http://www.inkscape.org/) -->

<svg
   version="1.1"
   id="svg1"
   xml:space="preserve"
   width="393.82391"
   height="21.864643"
   xmlns:inkscape="http://www.inkscape.org/namespaces/inkscape"
   xmlns:sodipodi="http://sodipodi.sourceforge.net/DTD/sodipodi-0.dtd"
   xmlns:xlink="http://www.w3.org/1999/xlink"
   xmlns="http://www.w3.org/2000/svg"
   xmlns:svg="http://www.w3.org/2000/svg"><defs
     id="defs1"><linearGradient
       xlink:href="#linearGradient2"
       id="linearGradient148"
       x1="207.86073"
       y1="188.24541"
       x2="207.86073"
       y2="349.83289"
       gradientUnits="userSpaceOnUse"
       gradientTransform="matrix(0.64484719,0,0,0.64484719,9.9901803,78.667167)" /><linearGradient
       id="linearGradient2"><stop
         style="stop-color:#f9f9f9;stop-opacity:1;"
         offset="0.48806629"
         id="stop147" /><stop
         style="stop-color:#4a4a4a;stop-opacity:1;"
         offset="0.51111096"
         id="stop148" /><stop
         style="stop-color:#ffffff;stop-opacity:1;"
         offset="0.52679527"
         id="stop149" /></linearGradient></defs><sodipodi:namedview
     id="namedview1"
     pagecolor="#ffffff"
     bordercolor="#000000"
     borderopacity="0.25"
     inkscape:showpageshadow="2"
     inkscape:pageopacity="0.0"
     inkscape:pagecheckerboard="0"
     inkscape:deskcolor="#d1d1d1" /><inkscape:clipboard
     style="fill:url(#linearGradient148);stroke-width:0.64484788"
     min="68.702063,476.43554"
     max="462.52596,498.30019"
     geom-min="68.702063,476.43554"
     geom-max="462.52596,498.30019" /><g
     id="layer1"
     transform="matrix(3.7795276,0,0,3.7795276,-347.44808,-942.09888)"><path
       d="m 94.711403,249.3503 h 2.971075 l 2.782402,5.61201 h -2.019992 l -0.534469,-0.94319 h -3.426937 l -0.534475,0.94319 h -2.020036 z m 1.619127,1.26547 h -0.267218 l -0.935351,1.94926 h 2.130092 z m 5.08537,-1.26547 h 1.7292 v 4.15791 h 3.92213 v 1.4541 h -5.65133 z m 6.8539,-0.0157 h 4.22866 c 0.92225,0 1.53007,0.11269 1.82349,0.33796 0.36679,0.27905 0.55019,0.87509 0.55019,1.78815 0,0.90784 -0.18079,1.50125 -0.54231,1.78031 -0.29868,0.23056 -0.90912,0.3458 -1.83137,0.3458 h -2.49949 v 1.37551 h -1.72917 z m 1.72917,2.79817 h 2.49949 c 0.20433,0 0.35896,-0.0446 0.4637,-0.13494 0.12579,-0.10479 0.18867,-0.28428 0.18867,-0.53712 0,-0.24758 -0.0629,-0.42705 -0.18867,-0.53708 -0.10474,-0.0904 -0.25937,-0.13494 -0.4637,-0.13494 h -2.49949 z m 6.00502,-2.77457 h 1.72919 v 1.96497 h 3.73348 v -1.96497 h 1.72919 v 5.61984 h -1.72919 v -2.20079 h -3.73348 v 2.20079 h -1.72919 z m 11.05896,-0.008 h 2.97107 l 2.7824,5.61202 h -2.02001 l -0.53445,-0.9432 H 126.835 l -0.53445,0.9432 h -2.02006 z m 1.61911,1.26548 h -0.2672 l -0.93535,1.94925 h 2.13006 z m 5.06965,-1.28119 h 5.03039 c 0.61833,0 1.05588,0.11269 1.3126,0.33927 0.27774,0.24632 0.41659,0.67989 0.41659,1.29953 0,0.48339 -0.0576,0.84103 -0.17293,1.07159 -0.11526,0.23055 -0.31699,0.40475 -0.60518,0.52005 0.31436,0.13624 0.52267,0.27248 0.62485,0.40873 0.1022,0.13623 0.15326,0.37989 0.15326,0.73095 v 1.25761 h -1.72919 v -1.00607 c 0,-0.14673 -0.0393,-0.26987 -0.11791,-0.36944 -0.0995,-0.13098 -0.24888,-0.19651 -0.44799,-0.19651 h -2.7353 v 1.57202 h -1.72919 z m 1.72919,1.45409 v 1.14758 h 2.77458 c 0.18867,0 0.32359,-0.0406 0.4048,-0.12318 0.0812,-0.0812 0.12182,-0.23056 0.12182,-0.4467 0,-0.21613 -0.0419,-0.36678 -0.12574,-0.45064 -0.0839,-0.0851 -0.21748,-0.12706 -0.40088,-0.12706 z m 6.57091,4.16576 v -5.61985 h 4.84172 c 0.98512,0 1.6349,0.1965 1.94931,0.59081 0.29342,0.36679 0.44015,1.10955 0.44015,2.227 0,1.11216 -0.14412,1.84971 -0.43232,2.21126 -0.31441,0.39431 -0.96679,0.59078 -1.95714,0.59078 z m 1.7292,-1.45406 h 2.82173 c 0.37206,0 0.62355,-0.0943 0.75456,-0.28428 0.13097,-0.18867 0.1965,-0.54365 0.1965,-1.0637 0,-0.52533 -0.0655,-0.88424 -0.1965,-1.07551 -0.13101,-0.19259 -0.3825,-0.28821 -0.75456,-0.28821 h -2.82173 z m 18.6202,-2.12219 h -1.72919 c 0,-0.33014 -0.0812,-0.52271 -0.24365,-0.5777 -0.16247,-0.0551 -0.72314,-0.0826 -1.68204,-0.0826 -0.95891,0 -1.51959,0.0602 -1.68203,0.18078 -0.16241,0.12052 -0.24365,0.54235 -0.24365,1.26547 0,0.71787 0.0799,1.13573 0.23972,1.25364 0.15986,0.11791 0.72444,0.17688 1.69384,0.17688 0.96414,0 1.52482,-0.0236 1.68204,-0.0708 0.15718,-0.0471 0.23577,-0.22005 0.23577,-0.51874 h -2.13792 v -1.2576 h 3.86711 c 0,1.22093 -0.0446,1.99384 -0.13362,2.31869 -0.12575,0.45588 -0.44016,0.74146 -0.94318,0.85671 -0.37203,0.0839 -1.22878,0.12579 -2.5702,0.12579 -1.76063,0 -2.81127,-0.1402 -3.15185,-0.42051 -0.34056,-0.28032 -0.5109,-1.10434 -0.5109,-2.47197 0,-1.36762 0.16506,-2.18767 0.49519,-2.46014 0.35108,-0.2882 1.40693,-0.43233 3.16756,-0.43233 1.68726,0 2.70643,0.097 3.05749,0.29086 0.39301,0.21483 0.58951,0.82267 0.58951,1.8235 z m 1.45406,-2.0436 h 5.03038 c 0.61833,0 1.05588,0.11269 1.31259,0.33927 0.27774,0.24632 0.41661,0.67989 0.41661,1.29953 0,0.48339 -0.0576,0.84103 -0.17296,1.07159 -0.11525,0.23055 -0.31697,0.40475 -0.60517,0.52005 0.31436,0.13624 0.52267,0.27248 0.62486,0.40873 0.10218,0.13623 0.15327,0.37989 0.15327,0.73095 v 1.25761 h -1.7292 v -1.00607 c 0,-0.14673 -0.0393,-0.26987 -0.11791,-0.36944 -0.0995,-0.13098 -0.24888,-0.19651 -0.448,-0.19651 h -2.7353 v 1.57202 h -1.72917 z m 1.72917,1.45409 v 1.14758 h 2.77457 c 0.18867,0 0.32361,-0.0406 0.40481,-0.12318 0.0812,-0.0812 0.12183,-0.23056 0.12183,-0.4467 0,-0.21613 -0.0419,-0.36678 -0.12574,-0.45064 -0.0839,-0.0851 -0.2175,-0.12706 -0.4009,-0.12706 z m 14.18722,1.36762 c 0,1.36763 -0.16507,2.18508 -0.49519,2.45233 -0.3563,0.28821 -1.43052,0.43227 -3.22256,0.43227 -1.30999,0 -2.16936,-0.0471 -2.57807,-0.14146 -0.51352,-0.12052 -0.8384,-0.38251 -0.97463,-0.786 -0.10481,-0.30914 -0.15717,-0.96152 -0.15717,-1.95714 0,-1.36762 0.16239,-2.18505 0.48729,-2.45231 0.3563,-0.29343 1.43052,-0.44016 3.22258,-0.44016 1.78683,0 2.85838,0.14413 3.2147,0.43233 0.33537,0.27247 0.50305,1.09252 0.50305,2.46014 z m -5.69845,0 c 0,0.71787 0.0825,1.13577 0.24758,1.25369 0.16507,0.11786 0.74276,0.17682 1.73312,0.17682 0.99561,0 1.57591,-0.0589 1.74098,-0.17682 0.16507,-0.11792 0.24758,-0.53582 0.24758,-1.25369 0,-0.72312 -0.0825,-1.1436 -0.24758,-1.26151 -0.16507,-0.1179 -0.74276,-0.17686 -1.7331,-0.17686 -0.99561,0 -1.57593,0.0589 -1.741,0.17686 -0.16507,0.11791 -0.24758,0.53839 -0.24758,1.26151 z m 14.10073,-2.806 v 3.41906 c 0,1.01656 -0.2227,1.65588 -0.66809,1.91786 -0.40349,0.24104 -1.37289,0.36156 -2.90819,0.36156 -1.53008,0 -2.49682,-0.12052 -2.90031,-0.36156 -0.44539,-0.26725 -0.6681,-0.90651 -0.6681,-1.91786 v -3.41906 h 1.72919 v 3.41906 c 0,0.34063 0.0943,0.55807 0.28297,0.65239 0.22528,0.11529 0.74408,0.17295 1.55625,0.17295 0.80171,0 1.31003,-0.0537 1.52485,-0.16115 0.21484,-0.10742 0.32224,-0.32877 0.32224,-0.66419 v -3.41906 z m 1.35191,-0.0157 h 4.22866 c 0.92225,0 1.53009,0.11269 1.82352,0.33795 0.36678,0.27906 0.55018,0.87509 0.55018,1.78815 0,0.90784 -0.18079,1.50125 -0.5423,1.78032 -0.2987,0.23055 -0.90915,0.3458 -1.8314,0.3458 h -2.49946 v 1.3755 h -1.7292 z m 1.7292,2.79816 h 2.49946 c 0.20435,0 0.35896,-0.0446 0.46372,-0.13494 0.1258,-0.10479 0.18867,-0.28428 0.18867,-0.53712 0,-0.24757 -0.0629,-0.42705 -0.18867,-0.53708 -0.10476,-0.0904 -0.25937,-0.13494 -0.46372,-0.13494 h -2.49946 z"
       style="fill:url(#linearGradient148);fill-rule:evenodd;stroke-width:0.170616"
       id="path2-6" /></g></svg>
