<?xml version="1.0" encoding="UTF-8" standalone="no"?>
<!-- Created with Inkscape (http://www.inkscape.org/) -->

<svg
   version="1.1"
   id="svg1"
   xml:space="preserve"
   width="151.8347"
   height="33.213348"
   xmlns:inkscape="http://www.inkscape.org/namespaces/inkscape"
   xmlns:sodipodi="http://sodipodi.sourceforge.net/DTD/sodipodi-0.dtd"
   xmlns="http://www.w3.org/2000/svg"
   xmlns:svg="http://www.w3.org/2000/svg"><defs
     id="defs1" /><sodipodi:namedview
     id="namedview1"
     pagecolor="#ffffff"
     bordercolor="#000000"
     borderopacity="0.25"
     inkscape:showpageshadow="2"
     inkscape:pageopacity="0.0"
     inkscape:pagecheckerboard="0"
     inkscape:deskcolor="#d1d1d1" /><inkscape:clipboard
     style="fill:#55d400"
     min="325.38801,412.66042"
     max="477.2227,445.87377"
     geom-min="325.38801,412.66042"
     geom-max="477.2227,445.87377" /><g
     id="layer1"
     transform="matrix(3.7795276,0,0,3.7795276,-604.13403,-878.32376)"><g
       id="g29"
       transform="matrix(0.10133241,0,0,0.10133241,136.46003,225.0519)"
       style="fill:#4d4d4d"><path
         d="m 330.3819,118.1529 c -0.7789,1.1335 -2.3162,1.6999 -4.6074,1.6999 h -75.5796 c -1.3127,0 -2.3774,-0.2908 -2.9835,-0.7906 -0.678,-0.559 -0.5196,-1.6104 -0.003,-2.5404 l 1.7229,-3.2162 c 0.8422,-1.2251 2.4885,-1.8377 4.9391,-1.8377 h 75.8095 c 1.7872,0 2.8309,0.4005 3.13,1.2019 0.4147,1.1106 -0.5774,2.5121 -1.1257,3.4237 -0.4277,0.712 -0.8589,1.4142 -1.3025,2.0594 z m 64.3102,-19.2051 c 1.7742,-3.0412 2.6728,-4.9835 3.5895,-7.4415 0.8232,-2.207 1.207,-4.0711 0.4309,-6.3419 -0.8425,-2.9101 -5.2838,-4.3648 -13.3243,-4.3648 h -35.837 l -14.8172,26.4183 c -0.1619,0.2982 -0.2946,0.4595 -0.5743,0.4595 h -74.5461 c -0.6409,0 -1.1064,-0.6585 -0.8039,-1.2634 l 18.0334,-31.932 c 0.7657,-1.3782 2.3738,-2.0676 4.8243,-2.0676 h 148.9768 c 17.9952,0 30.2856,4.1352 36.8711,12.4053 2.4502,3.3692 3.9435,7.0449 4.4796,11.0268 0.4405,3.2298 -0.0312,6.8119 -1.1155,10.7455 -0.1071,0.3889 -0.2627,1.0854 -0.7225,1.0854 h -78.7958 c -0.7339,0 -1.1477,-0.6423 -0.8039,-1.2634 z m -22.6278,38.8236 c 1.072,-1.455 2.1058,-2.9097 3.1013,-4.3648 0.9956,-1.455 1.9525,-3.0248 2.8715,-4.7094 l 2.6419,-4.7092 c 0.1792,-0.286 0.326,-0.3447 0.5743,-0.3447 h 78.9106 c 0.7107,0 1.0681,0.7699 0.8042,1.3785 -3.5226,4.1349 -7.5237,7.9829 -12.0033,11.5435 -4.4796,3.5609 -9.6293,6.9109 -15.4491,10.0505 -7.9637,4.2883 -16.1189,7.4469 -24.4656,9.4762 -8.3469,2.0294 -16.9613,3.0439 -25.8443,3.0439 H 234.229 c -1.6475,0 -2.7944,-0.3067 -3.247,-1.0171 -0.5199,-0.815 -0.0202,-1.8762 0.5195,-2.7967 6.0123,-10.2676 11.7318,-20.9296 17.5448,-31.3341 0.1871,-0.3059 0.3895,-0.3447 0.5743,-0.3447 h 74.431 c 0.3064,0 0.5672,0.1258 0.7466,0.4019 0.1718,0.2645 0.1576,0.567 0.0576,0.7467 l -14.5877,26.1887 h 34.8035 c 8.4997,0 15.2,-2.0676 20.1008,-6.2025 1.455,-1.0721 2.7184,-2.2017 3.7905,-3.3885 1.072,-1.1869 2.1058,-2.393 3.1014,-3.6182 z m 167.3455,-31.5873 c 3.2162,-2.4502 6.2025,-6.0494 8.9592,-10.7971 2.1441,-3.9819 3.1397,-7.0064 2.9866,-9.074 -0.1534,-0.4595 -0.3064,-0.8997 -0.4595,-1.321 -0.1534,-0.4212 -0.4595,-0.7849 -0.919,-1.0913 -2.6036,-2.0673 -6.126,-3.1011 -10.5673,-3.1011 h -38.2493 l -14.8172,26.4183 c -0.1225,0.2316 -0.3263,0.4595 -0.5743,0.4595 h -10.4842 c 1.1846,-4.0076 1.7708,-8.2392 1.2069,-12.4016 -0.6426,-4.746 -2.4369,-9.0827 -5.2543,-12.9568 -3.42,-4.4969 -8.5373,-7.8118 -13.7281,-9.9046 h 137.4939 c 18.1482,0 28.6775,4.3648 31.5873,13.0944 0.5023,1.5741 0.7645,3.2734 0.5363,4.932 -0.2237,1.6248 -0.5193,3.0484 -1.5701,4.9462 -1.3952,2.5126 -3.5033,4.6712 -6.6044,6.6622 -3.1014,1.9908 -7.026,3.8671 -11.7735,5.6282 h -67.3095 z m -77.5324,44.7965 h 37.1007 c 2.7567,0 5.3218,-0.2489 7.6958,-0.7466 2.3738,-0.4978 4.6327,-1.34 6.7768,-2.5269 2.1441,-1.1871 4.1735,-2.7759 6.0877,-4.767 1.9145,-1.9907 3.6757,-4.4413 5.2838,-7.3511 2.3737,-4.3647 3.4458,-7.8871 3.2162,-10.5672 l -0.0369,-0.5667 c -0.0232,-0.5437 0.1517,-0.8118 0.6112,-0.8118 h 75.2349 c 1.0094,0 1.4144,2.2595 1.4933,2.9866 0.4419,2.9174 -0.8178,6.0329 -2.1215,8.5997 -1.0687,2.1042 -2.5152,4.1253 -4.1357,5.7385 -3.8574,3.8392 -9.9652,7.5985 -18.3235,11.2759 -10.7203,4.5947 -21.7856,6.8919 -33.1951,6.8919 H 414.4348 c 7.4237,-2.1373 14.5684,-5.1055 21.3815,-8.7769 5.6287,-3.0334 11.069,-6.4837 16.0778,-10.4653 4.0147,-3.1912 7.7718,-6.6934 11.1932,-10.5114 1.1548,-1.3357 2.736,-3.3327 4.3931,-5.739 h 8.1805 c 0.3064,0 0.5882,0.1136 0.7467,0.4019 0.1182,0.2157 0.1593,0.6015 -0.044,0.9292 z"
         style="fill:#ffffff;fill-rule:evenodd"
         id="path1-30" /><path
         d="m 250.1949,119.8528 h 75.5796 c 2.2912,0 3.8285,-0.5664 4.6074,-1.6999 0.4436,-0.6452 0.8748,-1.3474 1.3025,-2.0594 0.5483,-0.9116 1.5404,-2.3131 1.1257,-3.4237 -0.2991,-0.8014 -1.3428,-1.2019 -3.13,-1.2019 h -75.8095 c -2.4506,0 -4.0969,0.6126 -4.9391,1.8377 l -1.7229,3.2162 c -0.5168,0.93 -0.6752,1.9814 0.003,2.5404 0.6061,0.4998 1.6708,0.7906 2.9835,0.7906 z"
         style="fill:#55d400;fill-rule:evenodd"
         id="path2-9" /><path
         d="m 385.5033,113.3056 -1.6081,3.2162 c -0.3829,0.6891 -0.5743,1.1869 -0.5743,1.4933 0.1531,1.2251 1.2634,1.8377 3.331,1.8377 h 68.4408 7.2536 7.5773 17.4115 103.7628 c 2.2501,0 3.719,-0.5445 4.3829,-1.6399 l 1.8414,-3.0367 c 0.2818,-0.4646 0.796,-1.2702 0.7824,-2.1002 -0.0922,-1.0877 -1.1486,-1.6081 -3.2162,-1.6081 H 487.3351 474.067 455.0927 390.5572 c -2.5271,0 -4.2117,0.6126 -5.0539,1.8377 z"
         style="fill:#55d400;fill-rule:evenodd"
         id="path3-2" /></g></g></svg>
