<?xml version="1.0" encoding="UTF-8" standalone="no"?>
<!-- Created with Inkscape (http://www.inkscape.org/) -->

<svg
   version="1.1"
   id="svg1"
   xml:space="preserve"
   width="68.156158"
   height="38.258324"
   xmlns:inkscape="http://www.inkscape.org/namespaces/inkscape"
   xmlns:sodipodi="http://sodipodi.sourceforge.net/DTD/sodipodi-0.dtd"
   xmlns="http://www.w3.org/2000/svg"
   xmlns:svg="http://www.w3.org/2000/svg"><defs
     id="defs1" /><sodipodi:namedview
     id="namedview1"
     pagecolor="#ffffff"
     bordercolor="#000000"
     borderopacity="0.25"
     inkscape:showpageshadow="2"
     inkscape:pageopacity="0.0"
     inkscape:pagecheckerboard="0"
     inkscape:deskcolor="#d1d1d1" /><inkscape:clipboard
     style="fill:#ff6600"
     min="-216.20543,521.58179"
     max="-148.04927,559.84011"
     geom-min="-216.20543,521.58179"
     geom-max="-148.04927,559.84011" /><g
     id="layer1"
     transform="matrix(3.7795276,0,0,3.7795276,-62.540592,-987.24513)"><g
       style="fill:#4d4d4d"
       id="g25"
       transform="matrix(0.75137429,0,0,0.75137429,16.547198,257.25337)"><path
         d="m 0,5.264 2.022,4.59 2.022,-4.59 z m 2.022,7.601 c 0.698,0 1.266,-0.565 1.266,-1.26 0,-0.699 -0.568,-1.262 -1.266,-1.262 a 1.262,1.262 0 1 0 0,2.523 z m -1.094,3.362 c 0,0.957 0.862,2.509 3.315,2.509 2.453,0 3.315,-1.188 3.315,-2.51 V 5.266 H 5.369 L 5.37,16.608 c 0,0.62 -0.503,1.14 -1.126,1.14 A 1.127,1.127 0 0 1 3.116,16.624 L 3.115,14.313 H 0.928 Z m 8.289,2.311 V 5.264 h 4.374 c 0.845,0 2.187,0.693 2.187,2.163 v 2.261 c 0,0.662 -0.58,1.833 -1.44,1.833 0.86,0 1.44,0.742 1.44,1.305 v 3.979 c 0,0.676 -0.546,1.733 -2.187,1.733 z m 3.38,-7.559 c 0.796,0 0.995,-0.134 0.995,-2.214 0,-2.08 -0.2,-2.246 -0.995,-2.246 h -1.195 v 4.457 z m 0.995,3.811 c 0,-2.081 0,-2.69 -0.864,-2.69 h -1.326 v 5.348 l 1.326,0.003 c 0.863,0 0.863,-0.581 0.863,-2.66 z m 3.779,3.748 H 24 v -4.226 h -2.189 l 0.002,2.31 a 1.1275,1.1275 0 0 1 -2.255,0 V 5.265 H 17.37 Z"
         id="path1-5"
         style="fill:#ff6600" /></g></g></svg>
