<?xml version="1.0" encoding="UTF-8" standalone="no"?>
<!-- Created with Inkscape (http://www.inkscape.org/) -->

<svg
   version="1.1"
   id="svg1"
   xml:space="preserve"
   width="770.09656"
   height="220.98444"
   xmlns:inkscape="http://www.inkscape.org/namespaces/inkscape"
   xmlns:sodipodi="http://sodipodi.sourceforge.net/DTD/sodipodi-0.dtd"
   xmlns="http://www.w3.org/2000/svg"
   xmlns:svg="http://www.w3.org/2000/svg"><defs
     id="defs1" /><sodipodi:namedview
     id="namedview1"
     pagecolor="#ffffff"
     bordercolor="#000000"
     borderopacity="0.25"
     inkscape:showpageshadow="2"
     inkscape:pageopacity="0.0"
     inkscape:pagecheckerboard="0"
     inkscape:deskcolor="#d1d1d1" /><inkscape:clipboard
     style="fill:#333333"
     min="-261.74495,-440.91951"
     max="508.3516,-219.93507"
     geom-min="-261.74495,-432.95842"
     geom-max="508.3516,-219.93507" /><g
     id="layer1"
     transform="matrix(3.7795276,0,0,3.7795276,-17.001069,-24.743834)"><g
       style="fill:none"
       id="g1"
       transform="matrix(0.46825093,0,0,0.46825093,3.9587744,6.5460478)"><path
         d="M 73,40.0001 H 96.3333 L 101.708,25.6668 108.875,50.7501 122,4.5 l 7.5,46.2501 9.833,-10.75 H 171"
         stroke="#ffffff"
         stroke-width="9"
         stroke-linecap="square"
         stroke-linejoin="round"
         id="path1-36" /><path
         d="m 73.088,31.3 c 0,6.272 -4.224,17.792 -5.76,24.192 L 52.352,47.94 55.424,36.676 h -19.2 L 18.816,101.572 H 37.76 l 3.2,-11.904 19.328,-8.96 C 57.216,92.228 57.216,114.5 40.832,114.5 H 11.264 c -4.864,0 -10.112,-2.56 -10.112,-7.808 0,-4.608 17.664,-67.584 19.072,-73.472 L 12.928,23.748 H 63.36 c 4.48,0 9.728,2.432 9.728,7.552 z m 33.367,27.776 c 4.48,0 9.472,1.664 9.472,6.784 0,4.352 -12.544,51.456 -14.592,59.008 L 89.687,113.092 c -6.016,0.64 -12.544,1.408 -18.944,1.408 -4.352,0 -9.344,-1.408 -9.344,-6.528 0,-6.528 3.2,-14.08 4.992,-20.48 1.92,-7.424 7.936,-7.936 14.464,-7.936 L 72.023,68.42 c 2.688,-6.528 4.608,-9.344 12.544,-9.344 z m -6.4,11.52 h -13.44 l -2.432,8.96 H 97.751 Z M 94.807,90.692 H 80.471 l -3.2,11.648 h 14.464 z m 62.877,-31.744 c 4.352,0 9.472,1.28 9.472,6.656 0,3.456 -2.048,7.424 -2.816,11.008 l -16.896,6.528 3.2,-11.904 h -10.752 l -11.52,43.136 h -14.464 l 11.264,-45.184 -8.064,-10.112 h 26.112 l -0.256,0.768 c 4.608,-0.256 9.728,-0.896 14.72,-0.896 z"
         fill="#ffffff"
         id="path2-75" /><path
         d="m 224.042,23.748 -7.936,12.928 h -30.208 l -3.712,13.696 c 5.248,5.888 25.856,25.856 25.856,33.536 0,2.048 -5.12,20.096 -5.632,22.272 -1.664,5.76 -6.784,8.32 -12.416,8.32 h -46.592 l 7.552,-12.928 h 35.84 l 4.352,-16.256 c -4.864,-5.632 -25.6,-25.728 -25.6,-33.28 0,-2.56 3.584,-15.232 4.096,-17.792 l -8.448,-10.496 z m 31.303,35.328 c 4.48,0 9.472,1.664 9.472,6.784 0,4.224 -8.96,34.56 -10.496,40.576 -1.664,5.76 -6.528,7.936 -12.16,7.936 h -23.04 c -4.48,0 -9.088,-1.408 -9.088,-6.528 0,-5.504 8.32,-33.664 10.24,-40.832 1.408,-5.888 6.4,-7.936 11.904,-7.936 z m -6.912,11.648 h -14.08 l -8.32,31.872 h 14.08 z m 42.805,31.616 11.52,-43.264 h 15.232 l -14.464,54.4 -17.024,8.064 1.664,-8.448 c -5.888,1.152 -12.16,1.408 -18.048,1.408 -4.352,0 -9.344,-1.408 -9.344,-6.528 0,-3.968 10.752,-42.368 12.544,-48.896 h 14.976 L 277.03,102.34 Z m 72.527,-43.392 c 4.608,0 9.216,1.28 9.216,6.656 0,4.608 -11.008,41.856 -12.672,48.768 h -15.36 L 356.597,70.98 h -14.208 l -11.392,43.392 h -14.464 l 11.52,-46.464 -7.168,-8.832 h 24.704 v 0.896 c 5.888,-0.384 12.032,-1.024 18.176,-1.024 z m 48.335,0.128 5.632,-21.504 18.56,-12.544 -23.808,89.344 h -15.232 l 0.256,-0.896 c -4.224,0.512 -8.192,1.024 -12.544,1.024 -6.528,0 -13.952,-3.2 -13.952,-10.752 0,-4.608 6.656,-25.984 8.192,-31.744 3.968,-14.592 21.76,-12.928 32.896,-12.928 z m -17.024,11.648 -8.704,31.232 14.08,0.384 8.576,-31.616 z"
         fill="#2a2a2a"
         id="path3-3"
         style="fill:#333333" /></g></g></svg>
