<svg width="771" height="221" viewBox="0 0 771 221" fill="none" xmlns="http://www.w3.org/2000/svg">
<g clip-path="url(#clip0_70_1100)">
<path d="M127.154 70.7879H168.449L177.961 45.4212L190.645 89.8128L213.873 7.96094L227.146 89.8128L244.548 70.7879H300.591" stroke="black" stroke-width="15.9279" stroke-linecap="square" stroke-linejoin="round"/>
<path d="M127.31 55.3907C127.31 66.4907 119.834 86.8784 117.116 98.2049L90.6121 84.8396L96.0488 64.9049H62.0693L31.2612 179.756H64.7876L70.4509 158.688L104.657 142.831C99.2202 163.219 99.2202 202.635 70.2244 202.635H17.8959C9.28774 202.635 0 198.105 0 188.817C0 180.662 31.2612 69.209 33.753 58.7886L20.8408 42.0254H110.094C118.022 42.0254 127.31 46.3295 127.31 55.3907ZM186.362 104.548C194.29 104.548 203.125 107.493 203.125 116.554C203.125 124.256 180.925 207.619 177.301 220.984L156.686 200.143C146.039 201.276 134.486 202.635 123.16 202.635C115.458 202.635 106.623 200.143 106.623 191.082C106.623 179.529 112.286 166.164 115.458 154.837C118.856 141.699 129.503 140.793 141.056 140.793L125.425 121.084C130.182 109.531 133.58 104.548 147.625 104.548H186.362ZM175.035 124.935H151.25L146.946 140.793H170.958L175.035 124.935ZM165.748 160.501H140.376L134.713 181.115H160.311L165.748 160.501ZM277.025 104.321C284.727 104.321 293.788 106.586 293.788 116.101C293.788 122.217 290.164 129.24 288.805 135.582L258.903 147.135L264.566 126.068H245.538L225.15 202.409H199.552L219.487 122.444L205.215 104.548H251.427L250.974 105.907C259.129 105.454 268.191 104.321 277.025 104.321Z" fill="black"/>
<path d="M394.463 42.0254L380.418 64.9049H326.957L320.388 89.1437C329.675 99.5641 366.147 134.903 366.147 148.495C366.147 152.119 357.086 184.06 356.179 187.911C353.235 198.105 344.173 202.635 334.206 202.635H251.749L265.114 179.756H328.543L336.245 150.986C327.637 141.019 290.939 105.454 290.939 92.0886C290.939 87.558 297.282 65.1315 298.188 60.6009L283.237 42.0254H394.463ZM449.862 104.548C457.791 104.548 466.625 107.493 466.625 116.554C466.625 124.029 450.768 177.717 448.05 188.364C445.105 198.558 436.497 202.409 426.529 202.409H385.754C377.825 202.409 369.67 199.917 369.67 190.856C369.67 181.115 384.395 131.278 387.793 118.593C390.285 108.172 399.119 104.548 408.86 104.548H449.862ZM437.629 125.162H412.711L397.987 181.568H422.905L437.629 125.162ZM513.384 181.115L533.772 104.548H560.729L535.131 200.823L505.003 215.094L507.948 200.143C497.527 202.182 486.427 202.635 476.007 202.635C468.305 202.635 459.47 200.143 459.47 191.082C459.47 184.06 478.499 116.101 481.67 104.548H508.174L488.239 181.115H513.384ZM641.74 104.321C649.895 104.321 658.05 106.586 658.05 116.101C658.05 124.256 638.569 190.176 635.624 202.409H608.44L629.055 125.615H603.91L583.749 202.409H558.151L578.538 120.178L565.853 104.548H609.573V106.133C619.993 105.454 630.867 104.321 641.74 104.321ZM727.282 104.548L737.249 66.4907L770.096 44.2907L727.962 202.409H701.004L701.458 200.823C693.982 201.729 686.96 202.635 679.258 202.635C667.705 202.635 654.566 196.972 654.566 183.607C654.566 175.452 666.345 137.621 669.064 127.427C676.086 101.603 707.574 104.548 727.282 104.548ZM697.153 125.162L681.749 180.435L706.668 181.115L721.845 125.162H697.153Z" fill="#333333"/>
</g>
<defs>
<clipPath id="clip0_70_1100">
<rect width="770.097" height="220.984" fill="white"/>
</clipPath>
</defs>
</svg>
